<svg xmlns="http://www.w3.org/2000/svg" width="28.751" height="28.833" viewBox="0 0 28.751 28.833">
  <g id="rauraulogo" transform="translate(0 -0.003)">
    <path id="Path_1095" data-name="Path 1095" d="M385.594,229.541A13.5,13.5,0,0,1,383,227.5a4.02,4.02,0,0,0-1.446-.854c-.55-.192-.741-.519-.28-.97,2.207-2.159,4.676-3.827,7.909-3.838a5.849,5.849,0,0,1,4.795,2.6,3.32,3.32,0,0,1-.377,4.309,6.723,6.723,0,0,1-6.752,1.405,6.219,6.219,0,0,1-1.26-.615Z" transform="translate(-365.858 -211.666)" fill="#09539f"/>
    <path id="Path_1096" data-name="Path 1096" d="M413.788,276.3l-.363-.053" transform="translate(-393.482 -258.041)" fill="none"/>
    <path id="Path_1097" data-name="Path 1097" d="M286.773,227.888a7.2,7.2,0,0,1-4.539.308,6.011,6.011,0,0,1-3.6-2.841,3.309,3.309,0,0,1,.515-3.7,6.03,6.03,0,0,1,7.635-1.191,12.827,12.827,0,0,1,2.782,2.025,4.41,4.41,0,0,0,1.716,1.1c.655.23.723.567.244,1.091a13.5,13.5,0,0,1-3.672,2.669c-.168.1-.352.2-.551.3C287.117,227.741,286.94,227.82,286.773,227.888Z" transform="translate(-278.283 -209.75)" fill="#0c7bc0"/>
    <path id="Path_1098" data-name="Path 1098" d="M345.624,158.849a6.362,6.362,0,0,1,2.549-5.257,3.33,3.33,0,0,1,4.48.414,5.989,5.989,0,0,1,1,7.3,12.7,12.7,0,0,1-2.079,2.92,4.462,4.462,0,0,0-1.1,1.714c-.226.641-.572.755-1.027.293A12.1,12.1,0,0,1,345.624,158.849Z" transform="translate(-335.686 -152.911)" fill="#11aca1"/>
    <path id="Path_1099" data-name="Path 1099" d="M353.89,263.887a6.394,6.394,0,0,1-2.691,5.157,3.288,3.288,0,0,1-4.35-.475,6,6,0,0,1-1.053-7.252,11.587,11.587,0,0,1,2.014-2.881,4.57,4.57,0,0,0,1.226-1.894c.164-.513.527-.682.942-.273A12.259,12.259,0,0,1,353.89,263.887Z" transform="translate(-335.164 -240.819)" fill="#1a95d2"/>
    <path id="Path_1100" data-name="Path 1100" d="M331.235,273.309c-.32-.372-1.009-.264-1.089-.251a1.986,1.986,0,0,0-.577.193,2.587,2.587,0,0,0-.517.326,3.278,3.278,0,0,0-1.367,2.416c-.021.4.078.716.581.757a3.159,3.159,0,0,0,3.049-2.3C331.427,273.88,331.416,273.521,331.235,273.309Zm-.723.947A2.416,2.416,0,0,1,329,275.719c-.307.037-.286-.167-.223-.323a2.479,2.479,0,0,1,1.313-1.408C330.314,273.892,330.55,273.9,330.512,274.256Z" transform="translate(-320.393 -255.304)" fill="#031c3b"/>
    <path id="Path_1101" data-name="Path 1101" d="M402.38,275.712a3.228,3.228,0,0,0-1.132-2.153c-.058-.041-.117-.08-.17-.112h0c-.061-.038-.114-.069-.145-.087a2.855,2.855,0,0,0-1.06-.4,1.151,1.151,0,0,0-.952.186,1.091,1.091,0,0,0-.176.924,3.218,3.218,0,0,0,2.822,2.593.865.865,0,0,0,.725-.215C402.365,276.357,402.445,276.2,402.38,275.712Zm-1.336-.159a2.621,2.621,0,0,1-1.358-1.181.415.415,0,0,1-.022-.486c.152-.177.316-.035.462.032a2.39,2.39,0,0,1,1.265,1.44C401.4,275.657,401.213,275.617,401.044,275.552Z" transform="translate(-380.951 -255.217)" fill="#021b3b"/>
    <path id="Path_1102" data-name="Path 1102" d="M446.44,306.56Z" transform="translate(-421.624 -283.882)" fill="#021b3b"/>
    <path id="Path_1103" data-name="Path 1103" d="M402.5,201.052a.613.613,0,0,0-.62-.666,3.031,3.031,0,0,0-3.062,2.839c-.046.437.063.857.692.888A3.293,3.293,0,0,0,402.5,201.052Zm-2.577,2.162a.259.259,0,0,1-.28-.313,2.642,2.642,0,0,1,1.52-1.5c.162-.019.227.04.248.18C401.476,202.01,400.412,203.2,399.922,203.214Z" transform="translate(-381.021 -193.37)" fill="#021c3b"/>
    <path id="Path_1104" data-name="Path 1104" d="M329.207,203.395a3.174,3.174,0,0,0-2.878-2.975c-.359,0-.67.068-.738.53a3.068,3.068,0,0,0,2.773,3.2C328.862,204.134,329.322,204.014,329.207,203.395Zm-.937-.162c-.155.155-.319.012-.463-.058a2.523,2.523,0,0,1-1.315-1.676,2.328,2.328,0,0,1,1.769,1.194A.409.409,0,0,1,328.27,203.232Z" transform="translate(-318.592 -193.406)" fill="#021b3b"/>
    <path id="Path_1105" data-name="Path 1105" d="M320.343,298.738c-.058.365-.227.637-.654.627a.629.629,0,0,1-.675-.7.615.615,0,0,1,.7-.6C320.118,298.062,320.316,298.321,320.343,298.738Z" transform="translate(-313.003 -276.637)" fill="#0a2240"/>
    <path id="Path_1106" data-name="Path 1106" d="M318.257,192.471c-.075.45-.311.658-.708.647a.588.588,0,0,1-.633-.71.621.621,0,0,1,.674-.624C318.041,191.79,318.174,192.143,318.257,192.471Z" transform="translate(-311.213 -186.042)" fill="#0c2543"/>
    <path id="Path_1107" data-name="Path 1107" d="M424.824,192.466a.691.691,0,0,1-.713.675.573.573,0,0,1-.633-.636.594.594,0,0,1,.59-.683C424.5,191.8,424.723,192.068,424.824,192.466Z" transform="translate(-402.051 -186.076)" fill="#0a2140"/>
    <path id="Path_1108" data-name="Path 1108" d="M424.8,298.674a.671.671,0,0,1-.729.621c-.439-.02-.571-.345-.57-.709,0-.414.264-.61.668-.6C424.588,297.992,424.768,298.245,424.8,298.674Z" transform="translate(-402.068 -276.572)" fill="#051d3c"/>
    <path id="Path_1109" data-name="Path 1109" d="M393.469,232.4a27.956,27.956,0,0,0,5.566-.027c.632-.077,1.257-.2,1.887-.3a.507.507,0,0,0,.482-.673c-.09-.4-.427-.348-.717-.3-.836.132-1.669.282-2.57.436.163-.366.47-.411.648-.607a.48.48,0,0,0,.088-.661.435.435,0,0,0-.642-.142c-.368.242-.73.495-1.075.768a2.377,2.377,0,0,1-1.681.616c-.115-.008-.262.035-.323-.1-.079-.18.075-.269.189-.348.364-.25.74-.484,1.1-.733.258-.177.476-.4.285-.734-.216-.372-.541-.268-.832-.1a7.859,7.859,0,0,0-1.743,1.346c-.567.6-1.265.415-1.933.409-.215,0-.261-.155-.121-.362,1.17-1.728,5.616-3.269,7.6-2.622a5.7,5.7,0,0,1,2.643,1.8,2.368,2.368,0,0,1-.065,3.272,4.847,4.847,0,0,1-6.314,1,20.324,20.324,0,0,1-2.211-1.585C393.624,232.674,393.451,232.626,393.469,232.4Z" transform="translate(-375.219 -217.018)" fill="#fefefe"/>
    <path id="Path_1110" data-name="Path 1110" d="M294.438,228.666a34.442,34.442,0,0,0-6.467.141c-.316.046-.63.1-.943.163a.544.544,0,0,0-.507.613c.041.4.355.429.665.379.867-.139,1.732-.293,2.656-.451-.1.375-.426.427-.621.608a.46.46,0,0,0-.133.646.467.467,0,0,0,.642.178,3.517,3.517,0,0,0,.793-.526,2.861,2.861,0,0,1,1.879-.892c.156,0,.376-.071.427.166.035.166-.116.258-.236.341q-.545.375-1.1.742c-.25.167-.417.381-.249.676.187.328.476.284.767.131a5.341,5.341,0,0,0,1.641-1.229,2.09,2.09,0,0,1,2.034-.53c.5.046.188.316.025.474a10.606,10.606,0,0,1-2.615,1.755,10.01,10.01,0,0,1-2.128.8,5.066,5.066,0,0,1-5.355-1.911,2.36,2.36,0,0,1,.267-3.429,4.892,4.892,0,0,1,6.317-.673c.8.495,1.545,1.1,2.314,1.648Z" transform="translate(-284.006 -215.203)" fill="#fefefe"/>
    <path id="Path_1111" data-name="Path 1111" d="M355.941,169.279a30.489,30.489,0,0,0-.06-5.389c-.074-.681-.2-1.356-.29-2.035-.053-.38-.258-.593-.644-.534-.458.07-.4.452-.355.755.133.816.3,1.626.478,2.525-.376-.119-.457-.384-.607-.575a.467.467,0,0,0-.645-.163.479.479,0,0,0-.181.643,4.006,4.006,0,0,0,.742,1.087,2.315,2.315,0,0,1,.646,1.736c-.013.114.022.257-.137.3s-.234-.06-.3-.158c-.263-.384-.517-.775-.775-1.162-.162-.244-.366-.426-.671-.263-.343.183-.292.49-.149.764a6.715,6.715,0,0,0,1.313,1.762,2.258,2.258,0,0,1,.47,1.917c0,.11-.026.265-.19.266-.2,0-.291-.172-.4-.3a12.315,12.315,0,0,1-2.426-4.49,4.967,4.967,0,0,1,1.175-4.915c1.619-1.845,3.506-1.645,4.779.471a4.686,4.686,0,0,1,.032,5.445A15.678,15.678,0,0,1,355.941,169.279Z" transform="translate(-340.729 -158.775)" fill="#fefefe"/>
    <path id="Path_1112" data-name="Path 1112" d="M353.816,268.443c0,1.564,0,2.954,0,4.344a19.562,19.562,0,0,0,.328,3.069c.062.392.181.755.681.674.525-.085.365-.5.32-.819-.11-.774-.252-1.543-.392-2.379.357.073.4.352.556.5.188.18.372.34.642.179.292-.174.277-.442.175-.712a3.626,3.626,0,0,0-.671-.96,2.177,2.177,0,0,1-.589-2.177c.558.385.737.984,1.125,1.416.188.209.329.444.658.254s.289-.468.142-.756a5.313,5.313,0,0,0-1.169-1.592,2.181,2.181,0,0,1-.65-1.94c.008-.144-.021-.314.138-.391.215-.1.3.1.412.214a10.569,10.569,0,0,1,1.9,2.957,6.013,6.013,0,0,1,.684,4.115,5.887,5.887,0,0,1-1.931,3.059,2.34,2.34,0,0,1-3.268-.142c-1.755-1.78-2.571-4.248-.553-6.957C352.808,269.791,353.263,269.184,353.816,268.443Z" transform="translate(-340.415 -250.267)" fill="#fefefe"/>
  </g>
</svg>
