<svg xmlns="http://www.w3.org/2000/svg" width="304.018" height="304.889" viewBox="0 0 304.018 304.889">
  <g id="rauraulogo" transform="translate(0 -0.004)">
    <path id="Path_1095" data-name="Path 1095" d="M429.39,303.266c-10.261-5.744-18.872-13.568-27.379-21.553a42.5,42.5,0,0,0-15.291-9.032c-5.815-2.031-7.833-5.483-2.958-10.253,23.336-22.833,49.444-40.469,83.631-40.586,21.575-.073,38.178,10.841,50.7,27.511,10.361,13.791,8.208,33.165-3.982,45.562-19.835,20.172-51.316,21.975-71.4,14.859a65.77,65.77,0,0,1-13.324-6.507Z" transform="translate(-220.697 -114.277)" fill="#09539f"/>
    <path id="Path_1096" data-name="Path 1096" d="M417.264,276.807l-3.839-.562" transform="translate(-202.534 -83.783)" fill="none"/>
    <path id="Path_1097" data-name="Path 1097" d="M368.061,307.307c-15.742,4.908-31.59,8.729-48,3.255-16.276-5.43-29.81-14.588-38.087-30.045-6.578-12.285-4.123-28.921,5.449-39.124,19.587-20.88,51.135-30.07,80.736-12.592,10.545,6.227,20.791,12.54,29.413,21.409a46.634,46.634,0,0,0,18.14,11.67c6.927,2.43,7.642,6,2.576,11.535-11.011,12.03-24.613,20.565-38.83,28.222-1.778,1.051-3.719,2.115-5.823,3.155C371.7,305.747,369.835,306.58,368.061,307.307Z" transform="translate(-278.283 -115.536)" fill="#0c7bc0"/>
    <path id="Path_1098" data-name="Path 1098" d="M345.624,215.672c.586-25.292,10.114-42.585,26.949-55.586a35.209,35.209,0,0,1,47.374,4.38c18.72,20.874,26.821,48.448,10.568,77.207-6.287,11.124-12.794,21.842-21.989,30.873a47.182,47.182,0,0,0-11.649,18.123c-2.386,6.775-6.047,7.981-10.856,3.1C363.642,271.04,347.981,244.864,345.624,215.672Z" transform="translate(-240.537 -152.911)" fill="#11aca1"/>
    <path id="Path_1099" data-name="Path 1099" d="M438.9,339.008c-1.376,23.7-10.492,41.685-28.451,54.532a34.769,34.769,0,0,1-46-5.019c-17.979-19.574-27.231-47-11.138-76.688,5.949-10.974,12.245-21.657,21.292-30.465a48.328,48.328,0,0,0,12.965-20.024c1.732-5.422,5.568-7.208,9.961-2.886C420.582,281.136,435.915,307.754,438.9,339.008Z" transform="translate(-240.881 -95.107)" fill="#1a95d2"/>
    <path id="Path_1100" data-name="Path 1100" d="M365.24,275.946c-3.386-3.933-10.674-2.793-11.517-2.653a20.994,20.994,0,0,0-6.1,2.045,27.341,27.341,0,0,0-5.462,3.448c-8.162,6.632-13.873,14.669-14.451,25.546-.219,4.244.827,7.568,6.148,8,13.514,1.093,29.649-10.955,32.24-24.312C367.268,281.986,367.159,278.194,365.24,275.946Zm-7.647,10.018c-.562,5.322-11.064,15.386-15.948,15.465-3.246.39-3.028-1.763-2.356-3.417a26.21,26.21,0,0,1,13.888-14.887C355.5,282.111,358,282.157,357.593,285.965Z" transform="translate(-250.593 -85.583)" fill="#031c3b"/>
    <path id="Path_1101" data-name="Path 1101" d="M437.371,302.329c-.344-2.606-2.091-15.59-11.969-22.768-.608-.437-1.233-.842-1.795-1.186h-.015c-.64-.405-1.2-.733-1.53-.92a30.182,30.182,0,0,0-11.2-4.261c-2.279-.28-7.225-.921-10.065,1.967-1.873,1.888-2.419,5.071-1.858,9.769,1.623,13.608,16.167,26.965,29.837,27.418,3.714.125,6.258-.593,7.662-2.278C437.215,309.149,438.058,307.463,437.371,302.329Zm-14.122-1.686a27.715,27.715,0,0,1-14.357-12.484c-.858-1.514-1.592-3.527-.234-5.134,1.608-1.873,3.34-.374,4.885.343a25.276,25.276,0,0,1,13.374,15.23C426.963,301.752,425.027,301.33,423.249,300.644Z" transform="translate(-210.773 -85.64)" fill="#021b3b"/>
    <path id="Path_1102" data-name="Path 1102" d="M446.44,306.56Z" transform="translate(-184.028 -66.791)" fill="#021b3b"/>
    <path id="Path_1103" data-name="Path 1103" d="M437.84,207.513c-.25-4.479-2.325-6.648-6.554-7.038-15.464-1.467-32.365,13.748-32.38,30.024-.484,4.619.67,9.066,7.318,9.394C421.158,240.643,438.682,222.494,437.84,207.513Zm-27.247,22.861a2.734,2.734,0,0,1-2.965-3.308c.282-4.791,10.971-15.23,16.074-15.855,1.717-.2,2.4.421,2.622,1.9C427.025,217.641,415.774,230.2,410.593,230.375Z" transform="translate(-210.727 -126.307)" fill="#021c3b"/>
    <path id="Path_1104" data-name="Path 1104" d="M364.021,231.88c.032-15.652-15.356-31.319-30.43-31.46-3.792-.031-7.085.718-7.8,5.6-2.278,15.465,13.763,34.238,29.322,33.816C360.369,239.7,365.238,238.434,364.021,231.88Zm-9.909-1.717c-1.638,1.638-3.371.125-4.9-.608-7.147-3.386-11.22-9.27-13.9-17.728,9.52,1.046,14.5,6.367,18.711,12.625C355.172,226.169,355.828,228.416,354.111,230.164Z" transform="translate(-251.777 -126.284)" fill="#021b3b"/>
    <path id="Path_1105" data-name="Path 1105" d="M333.075,305.221c-.61,3.857-2.4,6.735-6.917,6.626-4.712-.113-7.257-2.956-7.14-7.4.113-4.319,3.314-6.4,7.352-6.384C330.692,298.08,332.789,300.82,333.075,305.221Z" transform="translate(-255.453 -71.555)" fill="#0a2240"/>
    <path id="Path_1106" data-name="Path 1106" d="M331.127,199.068c-.791,4.756-3.291,6.955-7.486,6.841-4.731-.128-7.047-2.836-6.692-7.507a6.564,6.564,0,0,1,7.124-6.6C328.837,191.876,330.246,195.6,331.127,199.068Z" transform="translate(-256.63 -131.125)" fill="#0c2543"/>
    <path id="Path_1107" data-name="Path 1107" d="M437.708,198.639a7.311,7.311,0,0,1-7.54,7.139c-4.273.18-6.659-2.51-6.689-6.721-.03-4.03,1.831-7.028,6.243-7.225C434.292,191.627,436.637,194.433,437.708,198.639Z" transform="translate(-196.899 -131.103)" fill="#0a2140"/>
    <path id="Path_1108" data-name="Path 1108" d="M437.233,305.281c-.8,3.939-3.041,6.779-7.706,6.57-4.638-.208-6.037-3.651-6.03-7.5.008-4.382,2.793-6.447,7.063-6.369C435.025,298.067,436.928,300.751,437.233,305.281Z" transform="translate(-196.888 -71.598)" fill="#051d3c"/>
    <path id="Path_1109" data-name="Path 1109" d="M407.529,273.42c19.639,1.531,39.27,2.1,58.851-.281,6.68-.813,13.3-2.147,19.952-3.177,4.185-.647,5.99-3.157,5.1-7.119-.948-4.225-4.516-3.684-7.585-3.2-8.839,1.4-17.65,2.98-27.174,4.61,1.727-3.867,4.965-4.342,6.849-6.414,1.985-2.184,2.733-4.463.931-6.989-1.746-2.448-4.2-3.209-6.79-1.5-3.889,2.558-7.722,5.23-11.371,8.118-5.247,4.152-10.877,7.013-17.774,6.514-1.211-.088-2.774.375-3.41-1.066-.839-1.9.792-2.85,2-3.683,3.847-2.649,7.819-5.116,11.676-7.752,2.733-1.868,5.034-4.271,3.013-7.757-2.28-3.93-5.722-2.83-8.8-1.011a83.107,83.107,0,0,0-18.436,14.232c-5.994,6.365-13.377,4.388-20.443,4.322-2.279-.022-2.756-1.644-1.276-3.829,12.374-18.269,59.382-34.571,80.323-27.722a60.323,60.323,0,0,1,27.946,19.026c9.069,10.839,8.745,24.2-.691,34.6-18.186,20.05-43.375,24.033-66.766,10.558-8.347-4.809-15.777-10.906-23.375-16.758C409.167,276.279,407.343,275.772,407.529,273.42Z" transform="translate(-214.542 -110.757)" fill="#fefefe"/>
    <path id="Path_1110" data-name="Path 1110" d="M384.831,254.29c-22.835-1.007-45.665-1.791-68.384,1.492-3.337.482-6.662,1.069-9.969,1.725-3.5.693-5.738,2.818-5.366,6.479.431,4.24,3.751,4.532,7.032,4.005,9.169-1.472,18.313-3.1,28.085-4.772-1.027,3.969-4.509,4.511-6.564,6.427-2.227,2.079-3.063,4.231-1.4,6.827a4.934,4.934,0,0,0,6.786,1.88,37.2,37.2,0,0,0,8.387-5.566c5.809-4.761,11.679-9.654,19.866-9.435,1.65.044,3.975-.752,4.511,1.756.374,1.75-1.221,2.726-2.5,3.6q-5.766,3.961-11.586,7.847c-2.641,1.763-4.414,4.024-2.632,7.147,1.98,3.468,5.03,3,8.109,1.388a56.471,56.471,0,0,0,17.349-13c6.048-7.146,13.91-6.307,21.508-5.6,5.244.488,1.991,3.346.264,5.017-8.1,7.837-17.737,13.5-27.656,18.563a105.84,105.84,0,0,1-22.5,8.5c-23.439,5.858-41.788-3-56.625-20.212-9.909-11.493-8.26-25.248,2.821-36.258,18.6-18.482,43.624-21.359,66.795-7.116,8.512,5.232,16.336,11.581,24.474,17.422Z" transform="translate(-274.519 -111.951)" fill="#fefefe"/>
    <path id="Path_1111" data-name="Path 1111" d="M398.087,260.1a322.372,322.372,0,0,0-.639-56.987c-.781-7.2-2.075-14.34-3.068-21.516-.557-4.02-2.723-6.274-6.8-5.651-4.841.74-4.27,4.783-3.751,7.982,1.4,8.628,3.22,17.189,5.052,26.7-3.979-1.261-4.829-4.063-6.418-6.083-1.844-2.346-4.231-3.237-6.825-1.72-2.579,1.51-2.945,3.99-1.917,6.8,1.652,4.508,4.933,7.863,7.842,11.492,4.3,5.365,7.645,11.1,6.834,18.359-.135,1.2.237,2.723-1.449,3.192-1.53.426-2.477-.637-3.188-1.674-2.786-4.06-5.464-8.192-8.191-12.291-1.718-2.582-3.866-4.506-7.1-2.781-3.623,1.934-3.085,5.181-1.58,8.083a71.012,71.012,0,0,0,13.885,18.636c6.175,5.907,5.084,13.11,4.974,20.266-.018,1.166-.276,2.8-2.007,2.81-2.075.011-3.075-1.818-4.184-3.137A130.218,130.218,0,0,1,353.9,225.094c-5.761-19.586-.746-36.963,12.428-51.975,17.115-19.505,37.076-17.391,50.534,4.982,11.5,19.12,13.416,38.214.335,57.574A165.786,165.786,0,0,1,398.087,260.1Z" transform="translate(-237.221 -149.055)" fill="#fefefe"/>
    <path id="Path_1112" data-name="Path 1112" d="M379.142,281.064c0,16.54,0,31.236,0,45.933,0,10.942,1.759,21.7,3.472,32.454.659,4.144,1.913,7.984,7.2,7.125,5.548-.9,3.864-5.319,3.386-8.665-1.168-8.181-2.663-16.315-4.141-25.155,3.777.774,4.21,3.717,5.878,5.314,1.983,1.9,3.934,3.595,6.792,1.892,3.089-1.841,2.924-4.677,1.854-7.525-1.49-3.965-4.494-6.932-7.1-10.148-5.327-6.58-9.3-13.5-6.226-23.025,5.9,4.073,7.793,10.405,11.9,14.974,1.991,2.214,3.476,4.7,6.959,2.682,3.629-2.1,3.056-4.945,1.5-8a56.176,56.176,0,0,0-12.361-16.838c-6.449-5.713-7.322-12.769-6.875-20.518.088-1.525-.22-3.321,1.46-4.135,2.274-1.1,3.208,1.034,4.352,2.26a111.76,111.76,0,0,1,20.087,31.263c6.121,13.775,11.451,27.774,7.23,43.508A62.252,62.252,0,0,1,404.1,376.812c-10.489,8.822-24.729,8.473-34.562-1.5-18.562-18.823-27.181-44.917-5.848-73.567C368.476,295.316,373.287,288.9,379.142,281.064Z" transform="translate(-237.428 -88.895)" fill="#fefefe"/>
  </g>
</svg>
